<svg id="visual" viewBox="0 0 900 900" width="900" height="900" xmlns="http://www.w3.org/2000/svg" xmlns:xlink="http://www.w3.org/1999/xlink" version="1.1"><rect x="0" y="0" width="900" height="900" fill="#192433"></rect><defs><linearGradient id="grad1_0" x1="0%" y1="100%" x2="100%" y2="0%"><stop offset="30%" stop-color="#2d415b" stop-opacity="1"></stop><stop offset="70%" stop-color="#2d415b" stop-opacity="1"></stop></linearGradient></defs><defs><linearGradient id="grad1_1" x1="0%" y1="100%" x2="100%" y2="0%"><stop offset="30%" stop-color="#2d415b" stop-opacity="1"></stop><stop offset="70%" stop-color="#233247" stop-opacity="1"></stop></linearGradient></defs><defs><linearGradient id="grad1_2" x1="0%" y1="100%" x2="100%" y2="0%"><stop offset="30%" stop-color="#192433" stop-opacity="1"></stop><stop offset="70%" stop-color="#233247" stop-opacity="1"></stop></linearGradient></defs><defs><linearGradient id="grad2_0" x1="0%" y1="100%" x2="100%" y2="0%"><stop offset="30%" stop-color="#2d415b" stop-opacity="1"></stop><stop offset="70%" stop-color="#2d415b" stop-opacity="1"></stop></linearGradient></defs><defs><linearGradient id="grad2_1" x1="0%" y1="100%" x2="100%" y2="0%"><stop offset="30%" stop-color="#233247" stop-opacity="1"></stop><stop offset="70%" stop-color="#2d415b" stop-opacity="1"></stop></linearGradient></defs><defs><linearGradient id="grad2_2" x1="0%" y1="100%" x2="100%" y2="0%"><stop offset="30%" stop-color="#233247" stop-opacity="1"></stop><stop offset="70%" stop-color="#192433" stop-opacity="1"></stop></linearGradient></defs><g transform="translate(900, 900)"><path d="M-445.5 0C-442.8 -60.8 -440.1 -121.6 -411.6 -170.5C-383.1 -219.3 -328.7 -256.2 -279.3 -279.3C-229.9 -302.4 -185.4 -311.8 -139.7 -337.2C-93.9 -362.6 -47 -404 0 -445.5L0 0Z" fill="#1e2b3d"></path><path d="M-297 0C-295.2 -40.5 -293.4 -81.1 -274.4 -113.7C-255.4 -146.2 -219.1 -170.8 -186.2 -186.2C-153.3 -201.6 -123.6 -207.9 -93.1 -224.8C-62.6 -241.7 -31.3 -269.4 0 -297L0 0Z" fill="#283a51"></path><path d="M-148.5 0C-147.6 -20.3 -146.7 -40.5 -137.2 -56.8C-127.7 -73.1 -109.6 -85.4 -93.1 -93.1C-76.6 -100.8 -61.8 -103.9 -46.6 -112.4C-31.3 -120.9 -15.7 -134.7 0 -148.5L0 0Z" fill="#2d415b"></path></g><g transform="translate(0, 0)"><path d="M445.5 0C401.9 43 358.2 85.9 342.8 142C327.3 198 339.9 267.2 315 315C290.1 362.8 227.5 389.2 168.8 407.4C110 425.6 55 435.5 0 445.5L0 0Z" fill="#1e2b3d"></path><path d="M297 0C267.9 28.6 238.8 57.3 228.5 94.7C218.2 132 226.6 178.1 210 210C193.4 241.9 151.7 259.5 112.5 271.6C73.3 283.7 36.7 290.4 0 297L0 0Z" fill="#283a51"></path><path d="M148.5 0C134 14.3 119.4 28.6 114.3 47.3C109.1 66 113.3 89.1 105 105C96.7 120.9 75.8 129.7 56.3 135.8C36.7 141.9 18.3 145.2 0 148.5L0 0Z" fill="#2d415b"></path></g></svg>